<svg xmlns="http://www.w3.org/2000/svg" xmlns:xlink="http://www.w3.org/1999/xlink" id="Layer_1" x="0" y="0" version="1.1" viewBox="0 0 505.9 163.1" xml:space="preserve" style="enable-background:new 0 0 505.9 163.1"><style type="text/css">.st0{fill:#00c7fc}.st1{fill:#fff}.st2{fill:#495755}</style><g><circle cx="89.9" cy="81.6" r="62.7" class="st0"/><circle cx="77.8" cy="51" r="9" class="st1"/><circle cx="114.8" cy="57.7" r="9" class="st1"/><circle cx="87.6" cy="89.2" r="9" class="st1"/><circle cx="56" cy="78.9" r="9" class="st1"/><circle cx="77.8" cy="113.1" r="9" class="st1"/><circle cx="128.6" cy="91.6" r="9" class="st1"/><polygon points="91.5 93.5 60.9 82.7 62.7 77.6 83.8 85.1 74.2 47.6 115.3 55.1 114.3 60.4 81.4 54.4" class="st1"/><polygon points="80.3 114.1 75.3 112.1 85.9 86.5 128.7 88.9 128.4 94.2 89.4 92.1" class="st1"/><path d="M241.2,109.9h-13.5c-5.9,0-10.8-4.8-10.8-10.8V76.1c0-5.9,4.8-10.8,10.8-10.8h13.4c5.9,0,10.8,4.8,10.8,10.8 v22.9C251.9,105.1,247.1,109.9,241.2,109.9z M227.7,74.1c-1.2,0-2.2,1-2.2,2.2v22.9c0,1.2,1,2.2,2.2,2.2h13.4c1.2,0,2.2-1,2.2-2.2 V76.3c0-1.2-1-2.2-2.2-2.2H227.7z" class="st2"/><path d="M467.9,108h-26.4v-8.6h26.4c1.2,0,2.2-1,2.2-2.2V85.1c0-1.2-1-2.2-2.2-2.2h-13.4v-8.6h13.4 c5.9,0,10.8,4.8,10.8,10.8v12.1C478.6,103.1,473.8,108,467.9,108z" class="st2"/><path d="M465.2,83h-13.5c-5.9,0-10.8-4.8-10.8-10.8V60.1c0-5.9,4.8-10.8,10.8-10.8h26.4v8.6h-26.4 c-1.2,0-2.2,1-2.2,2.2v12.1c0,1.2,1,2.2,2.2,2.2h13.4V83H465.2z" class="st2"/><path d="M369.5,109.7h-25.6V50.4h25.6c8.3,0,15.1,6.8,15.1,15.1v29.2C384.6,103,377.8,109.7,369.5,109.7z M352.6,101.1 h17c3.6,0,6.5-2.9,6.5-6.5V65.5c0-3.6-2.9-6.5-6.5-6.5h-17V101.1z" class="st2"/><path d="M340.9,108.7h-9.1c-5.9,0-10.8-4.8-10.8-10.8V55.7h8.6v42.2c0,1.2,1,2.2,2.2,2.2h9.1V108.7z" class="st2"/><path d="M309.2,109.4h-8.6V75.8c0-0.7-0.6-1.3-1.3-1.3h-7.4c-6.5,0-9.6,8.8-9.6,10.3h-8.6c0-5.6,6.2-18.9,18.2-18.9 h7.4c5.5,0,9.9,4.4,9.9,9.9L309.2,109.4L309.2,109.4z" class="st2"/><path d="M185.2,108.4h-8.6V49.2H203c5.9,0,10.8,4.8,10.8,10.8v14.3c0,5.9-4.8,10.8-10.8,10.8h-17.8V108.4z M185.2,76.4 h17.7c1.2,0,2.2-1,2.2-2.2V59.9c0-1.2-1-2.2-2.2-2.2h-17.7V76.4z" class="st2"/><rect width="8.6" height="43.3" x="259.5" y="65.1" class="st2"/><rect width="8.6" height="43.3" x="273.7" y="66.1" class="st2"/><rect width="8.6" height="9.4" x="259.5" y="51.6" class="st2"/><rect width="26.3" height="8.6" x="312.4" y="65.9" class="st2"/><polygon points="424.2 108.4 397.9 64.5 397.9 107 389.3 107 389.3 49.4 399.4 49.4 425.6 94.4 425.6 49.4 434.2 49.4 434.2 108.4" class="st2"/></g></svg>