<svg xmlns="http://www.w3.org/2000/svg" xmlns:xlink="http://www.w3.org/1999/xlink" id="Layer_1" x="0" y="0" version="1.1" viewBox="-323 267 56 64" xml:space="preserve" style="enable-background:new -323 267 56 64"><style type="text/css">.st0{fill:#00435a}.st1{fill:#00aede}</style><g><path d="M-281.5,306v-13.8l-11.9,6.9L-281.5,306" class="st0"/><path d="M-282.2,290.8l-11.9-6.9v13.8L-282.2,290.8" class="st1"/><path d="M-295.7,297.7v-13.8l-12,6.9L-295.7,297.7" class="st1"/><path d="M-296.5,282.6l-11.9-6.9v13.9L-296.5,282.6" class="st1"/><path d="M-282.2,307.3l-11.9-6.9v13.8L-282.2,307.3" class="st0"/><path d="M-295.7,314.3v-13.8l-12,6.9L-295.7,314.3" class="st0"/><path d="M-267.9,299.1l-12-6.9V306L-267.9,299.1" class="st1"/><path d="M-310,289.5v-13.9l-12,6.9L-310,289.5" class="st1"/><path d="M-296.5,315.6l-11.9-6.9v13.8L-296.5,315.6" class="st0"/><path d="M-310,322.5v-13.8l-12,6.9L-310,322.5" class="st1"/><path d="M-296.5,299.1l-11.9-6.9V306L-296.5,299.1" class="st0"/><path d="M-281.5,289.5v-13.9l-11.9,6.9L-281.5,289.5" class="st1"/><path d="M-294.2,267.4v13.8l11.9-6.9L-294.2,267.4" class="st0"/><path d="M-307.7,274.3l12,6.9v-13.8L-307.7,274.3" class="st0"/><path d="M-282.2,323.8l-11.9-6.9v13.8L-282.2,323.8" class="st0"/><path d="M-295.7,330.8v-13.8l-12,6.9L-295.7,330.8" class="st0"/><path d="M-267.2,314.3v-13.8l-11.9,6.9L-267.2,314.3" class="st1"/><path d="M-310,306v-13.9l-12,6.9L-310,306" class="st1"/><path d="M-310.8,307.3l-12.1-6.9v13.8L-310.8,307.3" class="st1"/><path d="M-267.2,297.7v-13.8l-11.9,6.9L-267.2,297.7" class="st1"/><path d="M-267.9,282.6l-12-6.9v13.9L-267.9,282.6" class="st1"/><path d="M-267.9,315.6l-12-6.9v13.8L-267.9,315.6" class="st1"/><path d="M-281.5,322.5v-13.8l-11.9,6.9L-281.5,322.5" class="st0"/><path d="M-310.8,290.8l-12.1-6.9v13.8L-310.8,290.8" class="st1"/></g></svg>