<svg xmlns="http://www.w3.org/2000/svg" xmlns:xlink="http://www.w3.org/1999/xlink" id="Layer_1" x="0" y="0" version="1.1" viewBox="0 0 100 100" xml:space="preserve" style="enable-background:new 0 0 100 100"><style type="text/css">.st0{fill:#9d5025}.st1{fill:#f58435}.st2{fill:#fff}.st3,.st5{fill:#fff;stroke:#f58435;stroke-miterlimit:10}.st5{fill:none;stroke:#fbbf92;stroke-width:2}</style><circle cx="50" cy="50.6" r="30.4" class="st0"/><rect width="60.9" height="2.5" x="19.6" y="48.1" class="st0"/><circle cx="50" cy="48.1" r="30.4" class="st1"/><g><polygon points="52 44.8 48 44.8 45.9 26.7 54.1 26.7" class="st2"/></g><g><g><polygon points="67.6 58.1 69.2 56.8 63.5 48.3 51 44 50 50.9 61.2 51.9" class="st2"/></g></g><g><g><polygon points="32.4 58.1 30.8 56.8 36.5 48.3 49 44 50 50.9 38.8 51.9" class="st2"/></g></g><circle cx="50" cy="26.7" r="5.6" class="st3"/><circle cx="50" cy="26.7" r="1.9" class="st1"/><circle cx="50" cy="47.4" r="4.1" class="st3"/><circle cx="50" cy="47.4" r="1.3" class="st1"/><rect width="26.3" height="14.5" x="36.9" y="56.7" class="st2"/><line x1="39.2" x2="39.2" y1="57.9" y2="70.1" class="st5"/><line x1="42.8" x2="42.8" y1="57.9" y2="70.1" class="st5"/><line x1="46.4" x2="46.4" y1="57.9" y2="70.1" class="st5"/><line x1="50" x2="50" y1="57.9" y2="70.1" class="st5"/><line x1="53.6" x2="53.6" y1="57.9" y2="70.1" class="st5"/><line x1="57.2" x2="57.2" y1="57.9" y2="70.1" class="st5"/><line x1="60.8" x2="60.8" y1="57.9" y2="70.1" class="st5"/></svg>