<svg xmlns="http://www.w3.org/2000/svg" xmlns:xlink="http://www.w3.org/1999/xlink" width="262" height="204" x="0" y="0" enable-background="new 0 0 262 204" version="1.0" viewBox="0 0 262 204" xml:space="preserve"><metadata><?xpacket begin="﻿" id="W5M0MpCehiHzreSzNTczkc9d"?><?xpacket end="w"?></metadata><g id="book"><path id="p_x5F_bo2" fill="#D17300" d="M255.834,111.834l-17.333-22.667l-69.667-80.5L7.422,72.514 c-1.676,0.694-2.509,2.528-0.861,6.096c0,0,49.231,118.615,49.267,118.593l3.019,2.039c0.481,0.258,1.534,0.274,3.21-0.416 c0,0,33.436-23.211,79.527-49.744c0,0,13.442,0.121,19.5-2.25c12.091-4.73,16.397-12.263,16.397-12.263 c43.604-11.651,75.271-14.958,75.271-14.958C254.708,119.292,258.167,114.835,255.834,111.834z"/><path id="p_x5F_bo" fill="#F28500" d="M254.334,111.667c0.789,4.557-3.235,4.917-4.913,5.612c0,0-31.667,3.307-75.271,14.958 c0,0-4.311,7.528-16.397,12.263c-6.058,2.371-19.5,2.25-19.5,2.25c-46.091,26.533-79.527,49.744-79.527,49.744 c-1.677,0.694-2.723,1.381-3.218,0.297L6.562,78.61c-1.648-3.568-0.815-5.402,0.861-6.096c0,0,158.545-61.528,158.55-61.536 C183.5,17,254.334,111.667,254.334,111.667z"/><polygon id="pg_x5F_s" fill="#C6A263" points="14.25 76 60 182.5 61.334 155.832 20.333 58"/><path id="pg_x5F_b" fill="#E8CF91" d="M63,154c0,0,52.333-37.999,58.333-38.333s27.642-2.493,27.642-2.493L172.75,91l61.355-8.836 l4.736,28.645L163.667,125l-12.334,8l-12,2L60,182.5L63,154z"/><radialGradient id="pg_x5F_loop_1_" cx="58.641" cy="116.706" r="42.05" gradientTransform="matrix(1 0 0 1 91 0)" gradientUnits="userSpaceOnUse"><stop offset="0" style="stop-color:#845507"/><stop offset="1" style="stop-color:#d4b07a"/></radialGradient><path id="pg_x5F_loop" fill="url(#pg_x5F_loop_1_)" d="M140.625,133.625c0,0,0.042-12.124,9.709-16.458s12.354,7.583,12.354,7.583 l-9.563,9.188L140.625,133.625z"/><linearGradient id="pg_x5F_r_1_" x1="161.124" x2="127.457" y1="56.122" y2="80.455" gradientUnits="userSpaceOnUse"><stop offset="0" style="stop-color:#fff4b0"/><stop offset=".468" style="stop-color:#fef2ae"/><stop offset=".757" style="stop-color:#f1e09d"/><stop offset="1" style="stop-color:#c6a263"/></linearGradient><path id="pg_x5F_r" fill="url(#pg_x5F_r_1_)" d="M149.266,113.77L94.099,33.853c-0.352-0.508-0.356-1.177-0.01-1.689 c0.35-0.521,8.639-12.797,14.352-17.033c7.213-5.353,25.063-6.197,39.406-6.876c7.104-0.335,13.239-0.625,16.479-1.381 c0.115-0.027,0.229-0.04,0.342-0.04c0.404,0,0.798,0.163,1.084,0.462l69.332,72.335c0.402,0.419,0.525,1.036,0.316,1.577 c-0.21,0.544-0.719,0.915-1.294,0.957c-0.566,0.04-56.701,4.103-67.813,13.324c-9.705,8.055-14.433,18.061-14.433,18.061 L149.266,113.77z"/><linearGradient id="pg_x5F_l_1_" x1="52.778" x2="112.445" y1="104.606" y2="63.273" gradientUnits="userSpaceOnUse"><stop offset="0" style="stop-color:#fff4b0"/><stop offset=".468" style="stop-color:#fef2ae"/><stop offset=".757" style="stop-color:#f1e09d"/><stop offset="1" style="stop-color:#c6a263"/></linearGradient><path id="pg_x5F_l" fill="url(#pg_x5F_l_1_)" d="M59.948,154.912L18.656,55.75c0,0,33.367-33.165,53.677-35.5l2.082-0.062 c9.782,0,18.963,13.397,18.963,13.397l55.598,79.588c-0.001,0.001-1.505,2.336-1.505,2.336s-6.188-1.131-13.47-1.131 c-7.632,0-13.83,1.24-17.923,3.59c-12.865,7.385-53.855,37.572-53.855,37.572L59.948,154.912z"/><path id="bk_x5F_outline" fill="#845507" d="M242.041,109.122l-3.321-28.873c-0.122-0.932-0.563-1.734-1.189-2.342 C237.435,77.79,167.915,5.22,167.915,5.22c-0.858-0.897-2.037-1.387-3.248-1.387c-0.342,0-0.685,0.04-1.022,0.119 c-2.813,0.669-9.227,0.996-15.938,1.306c-7.653,0.362-15.854,0.748-23.146,1.758c-7.299,1.029-13.697,2.61-17.907,5.704 c-4.833,3.619-10.783,11.697-13.547,15.602c-3.645-4.313-10.398-11.034-18.691-11.134c-0.535,0-1.069,0.031-1.596,0.092 c-21.621,2.556-41.946,22.788-52.902,33.501c-3.292,2.657-4.067,5.701-4.067,5.701l-3.78,17.931c0,0-0.124,0.766-0.039,1.743 c0.085,0.977,0.323,1.793,0.323,1.793l44.057,103.208c0,0,1.156,3.048,2.526,3.153c1.37,0.106,4.099-1.885,4.099-1.885 l76.821-45.996c0,0,5.603,3.108,14.311-0.1s10.066-9.915,10.066-9.915l75.782-14.314c0,0,1.481-0.229,1.897-0.771 S242.041,109.122,242.041,109.122z M19.625,61.875c0,0,37.644,94.342,37.681,94.418l-0.241,15.573L16.083,76.417L19.625,61.875z M101.434,27.131c2.756-3.602,6.264-7.732,8.793-9.593c4.487-3.429,15.794-5.01,26.997-5.708 c10.708-0.72,21.302-0.798,26.938-1.859l66.563,69.448c-5.071,0.422-15.606,1.391-26.909,2.981 c-7.893,1.11-16.148,2.523-23.216,4.275c-7.071,1.777-12.901,3.789-16.224,6.503c-7.228,6.001-11.74,12.844-13.84,16.487 l-0.214,0.2l-8.918-12.764L97.153,32.997C97.957,31.836,99.532,29.605,101.434,27.131z M73.505,23.24 c0.302-0.036,0.606-0.052,0.91-0.052c3.825-0.043,8.064,2.854,11.228,5.947c1.583,1.533,2.908,3.079,3.827,4.235 c0.921,1.156,1.419,1.897,1.423,1.897l45.579,65.248l7.947,11.518c-2.568-0.315-6.292-0.654-10.416-0.654 c-6.419,0.013-13.804,0.79-19.417,3.989c-11.7,6.727-44.765,30.88-52.501,36.555c-0.049-0.01-0.099-0.016-0.148-0.021L22.11,57.027 C31.532,47.79,53.189,25.485,73.505,23.24z M161.25,121.5c0,0-1.083,5.5-8.083,9.167s-12.417-0.917-12.417-0.917L64.667,175 l0.613-17.985c7.013-5.146,40.968-29.953,52.293-36.442c3.485-2.021,9.218-3.202,16.429-3.193 c6.985,0.002,13.313,1.108,13.512,1.14c0.396,0.063,0.804,0.1,1.212,0.1c2.061,0.054,4.369-1.071,5.8-3.688 c0.085-0.162,0.048-0.098,0.102-0.2c0.527-1.066,5.011-9.821,13.583-16.931c1.846-1.564,6.08-3.266,11.465-4.702 c14.943-4.039,40.319-6.94,53.078-7.969L235,107L161.25,121.5z"/><path id="qmark" fill="#CC3602" d="M154.813,20.125c-5.542-0.223-9.076,0.171-15.035,2.503 c-11.737,4.593-20.801,13.52-21.317,20.946c-0.481,6.918,4.432,12.306,11.67,12.81c7.868,0.547,13.535-5.48,9.066-9.645 c-1.896-1.762-3.17-2.062-8.395-1.868c-6.926,0.258-7.662-0.39-5.917-5.455c1.482-4.303,8.823-8.996,16.608-12.181 c12.671-5.186,21.664-1.615,21.049,7.228c-0.138,1.982-0.139,5.691-2.17,10.428c-4.197,9.789-4.304,13.415-0.568,18.537 c1.283,1.76,2.653,3.223,3.063,3.251c0.408,0.028,0.893-1.854,1.074-4.186c0.206-2.65,1.92-7.186,4.54-12.121 c4.789-9.023,5.58-14.212,3.076-19.959c-0.918-2.109-3.281-5.084-5.239-6.598C163.257,21.447,160.977,20.373,154.813,20.125z M173.463,68.419c-3.8-0.265-9.104,1.994-7.569,8.84c0.413,1.844,4.894,3.649,8.104,0.854 C178.046,74.59,176.885,68.657,173.463,68.419z"/></g><g id="wrds" opacity=".25"><g id="words"><path fill="none" stroke="#845507" stroke-linecap="round" stroke-width="3" d="M42,80.667c0,0,3.333-8.333,8.667-10.333 s10.667-0.334,15-2.667s7-10.333,9.667-12S89.667,52,92.667,52"/><path fill="none" stroke="#845507" stroke-linecap="round" stroke-width="3" d="M47.688,93.5c0,0,3.688-9.125,9.021-11.125 s10.5-0.5,14.833-2.833s6.917-10.25,9.583-11.917c2.667-1.667,16.563-3.5,19.563-3.5"/><path fill="none" stroke="#845507" stroke-linecap="round" stroke-width="3" d="M53.375,106.333c0,0,4.042-9.916,9.375-11.916 s10.333-0.667,14.667-3.001c4.333-2.332,6.833-10.167,9.5-11.833c2.666-1.666,18.792-3.333,21.792-3.333"/><path fill="none" stroke="#845507" stroke-linecap="round" stroke-width="3" d="M59.063,119.167c0,0,4.396-10.709,9.729-12.709 s10.167-0.833,14.5-3.167c4.333-2.332,6.75-10.083,9.417-11.75c2.667-1.666,21.021-3.167,24.021-3.167"/><path fill="none" stroke="#845507" stroke-linecap="round" stroke-width="3" d="M64.75,132c0,0,4.75-11.5,10.083-13.5 s10-1,14.333-3.334c4.333-2.332,6.667-10,9.333-11.666s23.25-3,26.25-3"/></g><path id="title" fill="none" stroke="#845507" stroke-linecap="round" stroke-width="5" d="M33.75,61.75 c0,0,0.416-7.917,5.75-9.917s10-1,14.333-3.333s6.856-9.73,9.333-11.667C67.75,33.25,75.25,34.5,78.25,34.5"/></g></svg>