<svg xmlns="http://www.w3.org/2000/svg" xmlns:svg="http://www.w3.org/2000/svg" id="svg3221" width="1000" height="1000" version="1.1"><metadata id="metadata3226"/><g id="layer1" transform="translate(0,-52.362183)"><g style="display:inline" id="g6368" transform="matrix(1.1783562,0,0,1.1783562,2450.4425,-1298.9778)"><g id="g6358" transform="translate(-905.09668,1190.7678)"><rect style="opacity:.8;fill:#a295ae;fill-opacity:1;stroke:none" id="rect6306" width="263.037" height="263.037" x="19.391" y="453.992" transform="matrix(-0.1406648,0.99005728,-0.99005728,0.14066481,0,0)"/><rect style="opacity:.8;fill:#5d6f6d;fill-opacity:1;stroke:none" id="rect6298" width="263.037" height="263.037" x="-545.351" y="-980.321" transform="matrix(0.1406648,-0.99005728,0.99005728,-0.14066481,0,0)"/><rect style="opacity:.8;fill:#8cd592;fill-opacity:1;stroke:none" id="rect6290" width="263.037" height="263.037" x="-1091.811" y="239.364" transform="matrix(0.99005728,0.1406648,0.14066481,0.99005728,0,0)"/><rect style="opacity:.8;fill:#665e74;fill-opacity:1;stroke:none" id="rect6302" width="263.037" height="263.037" x="565.75" y="-765.044" transform="matrix(-0.99005728,-0.1406648,-0.14066481,-0.99005728,0,0)"/><rect id="rect6300" width="263.037" height="263.037" x="123.249" y="-1124.979" transform="matrix(-0.60061118,-0.79954125,0.60061117,-0.79954125,0,0)" style="opacity:.8;fill:#3c3647;fill-opacity:1;stroke:none"/><rect id="rect6304" width="263.037" height="263.037" x="522.398" y="-110.137" transform="matrix(-0.79954125,0.60061118,-0.79954125,-0.60061117,0,0)" style="opacity:.8;fill:#837193;fill-opacity:1;stroke:none"/><rect id="rect6288" width="263.037" height="263.037" x="-649.583" y="599.282" transform="matrix(0.60061118,0.79954125,-0.60061118,0.79954125,0,0)" style="opacity:.8;fill:#a2f4ac;fill-opacity:1;stroke:none"/><rect id="rect6296" width="263.037" height="263.037" x="-1048.922" y="-415.209" transform="matrix(0.79954125,-0.60061118,0.79954125,0.60061117,0,0)" style="opacity:.8;fill:#7ea685;fill-opacity:1;stroke:none"/></g><rect id="rect6286" width="141.421" height="141.421" x="-130.18" y="2210.659" transform="matrix(0.70710678,0.70710678,-0.70710678,0.70710678,0,0)" style="fill:#3c3647;fill-opacity:1;stroke:none"/></g></g></svg>