<svg xmlns="http://www.w3.org/2000/svg" xmlns:xlink="http://www.w3.org/1999/xlink" style="enable-background:new 0 0 249.7 247.9" id="Layer_1" x="0" y="0" version="1.1" viewBox="0 0 249.7 247.9" xml:space="preserve"><style type="text/css">.st0{fill:#515254}.st0,.st1,.st2,.st3,.st4{fill-rule:evenodd;clip-rule:evenodd}.st1{fill:url(#SVGID_1_)}.st2{fill:url(#SVGID_2_)}.st3{fill:url(#SVGID_3_)}.st4{fill:url(#SVGID_4_)}</style><g><path d="M15.4,175.5h3.7v4.8c1.1-1.6,2.6-2.9,4.6-3.9c2-1,4.1-1.5,6.3-1.5c4.4,0,8.1,1.5,11,4.4 c2.9,2.9,4.3,6.6,4.3,11c0,4.3-1.4,7.9-4.3,10.8c-2.9,2.9-6.4,4.4-10.7,4.4c-2.4,0-4.5-0.5-6.4-1.4c-1.9-0.9-3.5-2.2-4.7-4v2v4.3 v7.7h-3.7V175.5L15.4,175.5z M19.1,189.9c0,3.3,1.1,6.2,3.3,8.5c2.2,2.4,4.8,3.5,7.8,3.5c3,0,5.7-1.1,7.9-3.4 c2.2-2.2,3.3-5,3.3-8.2c0-3.4-1.1-6.2-3.3-8.6c-2.2-2.3-4.9-3.5-8-3.5c-2.9,0-5.4,1.2-7.6,3.5C20.2,184.2,19.1,186.9,19.1,189.9z" class="st0"/><path d="M53.6,190.1c0,3.3,1,6,3.1,8.2c2.1,2.2,4.7,3.3,7.8,3.3c3.1,0,5.7-1.1,7.7-3.3c2.1-2.2,3.1-5,3.1-8.3 c0-3.4-1-6.1-3.1-8.3c-2.1-2.2-4.8-3.3-8-3.3c-2.9,0-5.4,1.1-7.5,3.3C54.7,184.1,53.6,186.8,53.6,190.1L53.6,190.1z M49.8,190.2 c0-4.2,1.4-7.8,4.3-10.7c2.9-3,6.3-4.5,10.2-4.5c4.1,0,7.6,1.5,10.5,4.4c2.9,2.9,4.4,6.4,4.4,10.4c0,4.2-1.4,7.9-4.3,10.9 c-2.8,3-6.3,4.5-10.4,4.5c-4.1,0-7.6-1.5-10.5-4.4C51.3,197.8,49.8,194.3,49.8,190.2z" class="st0"/><path d="M87.7,204.7h-3.8v-29.2h3.5v3.4c0.9-1.3,1.9-2.2,3-2.8c0.5-0.3,1.1-0.5,1.8-0.7c0.6-0.2,1.3-0.3,2-0.3l0,4.1 c-2.4,0.2-4,0.9-5.1,2.1c-1,1.2-1.5,3.1-1.5,5.8V204.7z" class="st0"/><polygon points="104 204.7 104 179.3 98.4 179.3 98.4 175.5 104 175.5 104 166.1 107.7 166.1 107.7 175.5 113.3 175.5 113.3 179.3 107.7 179.3 107.7 204.7" class="st0"/></g><path d="M136,187.7l-5.1,17H127l-10.1-29.2l6.9,0l5.2,16.6l5.1-16.7l4.1,0l5.1,16.6l5.2-16.6l6.8,0L145,204.7h-3.9	L136,187.7L136,187.7z M156.4,190.2c0-2,0.3-3.9,1-5.8c0.7-1.9,1.8-3.5,3.1-4.9c1.4-1.5,3-2.7,4.9-3.5c1.8-0.9,3.8-1.3,5.8-1.3	c2,0,4,0.3,5.9,1.1c1.9,0.8,3.5,1.9,4.9,3.4c1.4,1.4,2.5,3.1,3.3,4.9c0.8,1.8,1.2,3.7,1.2,5.7c0,2-0.4,4-1.1,5.8	c-0.7,1.8-1.7,3.5-3,4.9c-0.7,0.8-1.5,1.5-2.3,2.1c-0.8,0.6-1.7,1.2-2.7,1.6c-1.9,0.8-3.8,1.3-5.9,1.3c-2,0-4-0.4-5.9-1.2	c-1.9-0.8-3.5-2-4.9-3.4c-1.4-1.4-2.4-3.1-3.2-5c-0.4-0.9-0.6-1.9-0.8-2.9C156.5,192.1,156.4,191.2,156.4,190.2L156.4,190.2z M163,190.1c0,2.5,0.7,4.6,2.4,6.4c1.6,1.7,3.7,2.5,6,2.5c2.4,0,4.3-0.8,5.9-2.6c1.7-1.8,2.4-4,2.4-6.5c0-2.5-0.7-4.7-2.4-6.5	c-1.6-1.7-3.6-2.5-6-2.5c-2.4,0-4.3,0.9-6,2.6C163.7,185.4,163,187.6,163,190.1L163,190.1z M196.8,177.4c0.5-0.5,1.1-1,1.7-1.3	c1.3-0.7,2.6-1,4.1-1h0.7v6.7h-0.7c-0.9,0-1.7,0.1-2.5,0.5c-0.7,0.3-1.3,0.7-1.8,1.3c-1.1,1.3-1.3,3.5-1.3,5.1v16.2h-6.4v-29.2h6.2	V177.4L196.8,177.4z M219.7,194.9l-6.3,9.9l-7.3,0l9.9-15.1l-8.7-14.1l7.3,0c18.4,29.2,0,0,18.4,29.2l-7.3,0L219.7,194.9z" class="st0"/><radialGradient id="SVGID_1_" cx="227.178" cy="181.702" r="5.981" gradientUnits="userSpaceOnUse"><stop style="stop-color:#e75d25" offset="0"/><stop style="stop-color:#d54d2a" offset="1"/></radialGradient><polygon points="221.4 182.4 225 187.9 233 175.5 225.4 175.5" class="st1"/><linearGradient id="SVGID_2_" x1="95.327" x2="153.806" y1="101.194" y2="101.194" gradientUnits="userSpaceOnUse"><stop style="stop-color:#f47a3a" offset="0"/><stop style="stop-color:#eb7035" offset=".181"/><stop style="stop-color:#db592a" offset=".694"/><stop style="stop-color:#d55028" offset="1"/></linearGradient><polygon points="95.3 138.6 125.9 118.4 155.9 98.5 129.7 81.1 155.9 98.5 155.9 63.8 129.7 81.1 95.3 103.9" class="st2"/><linearGradient id="SVGID_3_" x1="95.567" x2="155.895" y1="61.129" y2="61.129" gradientUnits="userSpaceOnUse"><stop style="stop-color:#d54927" offset="0"/><stop style="stop-color:#d74e28" offset=".226"/><stop style="stop-color:#dd5b2c" offset=".497"/><stop style="stop-color:#e87035" offset=".789"/><stop style="stop-color:#f58240" offset="1"/></linearGradient><polygon points="129.7 81.1 155.9 63.8 121.8 41.2 121.7 41.1 95.6 58.5 95.7 58.5" class="st3"/><linearGradient id="SVGID_4_" x1="110.508" x2="110.508" y1="153.132" y2="118.473" gradientUnits="userSpaceOnUse"><stop style="stop-color:#e56f30" offset="0"/><stop style="stop-color:#e36d30" offset=".018"/><stop style="stop-color:#cd5229" offset=".425"/><stop style="stop-color:#c04127" offset=".767"/><stop style="stop-color:#bc3a26" offset="1"/></linearGradient><polygon points="125.7 153.1 95.3 138.6 125.7 118.5" class="st4"/></svg>