<svg xmlns="http://www.w3.org/2000/svg" xmlns:xlink="http://www.w3.org/1999/xlink" id="Layer_1" x="0" y="0" version="1.1" viewBox="0 0 54.6 69.6" xml:space="preserve" style="enable-background:new 0 0 54.6 69.6"><style type="text/css">.st7{fill:url(#SVGID_1_)}.st8{fill:url(#SVGID_2_)}.st9{fill:url(#SVGID_3_)}.st10{fill:url(#SVGID_4_)}.st11{fill:url(#SVGID_5_)}.st12{fill:url(#SVGID_6_)}.st13{fill:url(#SVGID_7_)}.st14{fill:url(#SVGID_8_)}</style><g><linearGradient id="SVGID_1_" x1="16.812" x2="24.148" y1="42.99" y2="47.282" gradientUnits="userSpaceOnUse"><stop offset="0" style="stop-color:#5f8c3d"/><stop offset="1" style="stop-color:#37573a"/></linearGradient><path d="M16.8,59.8l15-26l-7.2-4.2l-15,26c-0.3,0.5,1.1,1.8,3.1,3C14.7,59.7,16.5,60.3,16.8,59.8 C16.8,59.8,16.8,59.8,16.8,59.8L16.8,59.8z" class="st7"/><linearGradient id="SVGID_2_" x1="20.529" x2="27.919" y1="36.679" y2="41.003" gradientUnits="userSpaceOnUse"><stop offset="0" style="stop-color:#d5d6d7"/><stop offset="1" style="stop-color:#848588"/></linearGradient><path d="M21.5,35L20,37.7c-0.3,0.5,1.1,1.8,3.1,3c2,1.2,3.8,1.7,4.1,1.2c0,0,0,0,0,0l0,0l0.4-0.7l1.5-2.2 C26.2,38.3,23.7,36.8,21.5,35z" class="st8"/><linearGradient id="SVGID_3_" x1="10.47" x2="17.86" y1="53.905" y2="58.228" gradientUnits="userSpaceOnUse"><stop offset="0" style="stop-color:#d5d6d7"/><stop offset="1" style="stop-color:#848588"/></linearGradient><path d="M11.5,52.2L9.9,55c-0.3,0.5,1.1,1.8,3.1,3c2,1.2,3.8,1.7,4.1,1.2c0,0,0,0,0,0l0,0l0.4-0.7l1.5-2.2 C16.2,55.5,13.6,54.1,11.5,52.2z" class="st9"/><path d="M11.6,17.2v-4.7H7.4c0,0-4-0.4-4,4s0,11.3,0,11.3s0.5,3.2-3.3,3.2v4.5c0,0,3.3-0.4,3.3,3.3s0,25.8,0,25.8s-0.2,4.9,4.1,4.9 s6.6,0,6.6,0V65H9.8c0,0-2.3-0.1-2.3-2.3s0-25.8,0-25.8s0-3.7-3-3.7c0,0,3.2-0.7,3.2-3.2s0-10.7,0-10.7s0.3-2.1,2.1-2.1H11.6z"/><path d="M16.4,64.9v4.7h28.4c0,0,4,0.4,4-4s0-5.3,0-5.3s-0.5-3.2,3.3-3.2v-4.5c0,0-3.3,0.4-3.3-3.3s0-3.8,0-3.8s0.2-4.9-4.1-4.9 s-4.6,0-4.6,0v4.6h2.2c0,0,2.3,0.1,2.3,2.3s0,3.8,0,3.8s0,3.7,3,3.7c0,0-3.2,0.7-3.2,3.2s0,4.7,0,4.7s-0.3,2.1-2.1,2.1H16.4z"/><g><linearGradient id="SVGID_4_" x1="39.774" x2="39.787" y1="102.688" y2="102.688" gradientTransform="matrix(0.8632 0.5049 -0.5049 0.8632 34.6754 -49.5161)" gradientUnits="userSpaceOnUse"><stop offset="0" style="stop-color:#5f8c3d"/><stop offset="1" style="stop-color:#37573a"/></linearGradient><path d="M17.2,59.2L17.2,59.2C17.2,59.2,17.2,59.2,17.2,59.2L17.2,59.2z" class="st10"/><linearGradient id="SVGID_5_" x1="31.43" x2="39.789" y1="103.553" y2="103.553" gradientTransform="matrix(0.8632 0.5049 -0.5049 0.8632 34.6754 -49.5161)" gradientUnits="userSpaceOnUse"><stop offset="0" style="stop-color:#58595b"/><stop offset="1" style="stop-color:#414042"/></linearGradient><path d="M9.6,55.6c-0.3,0.5,1.1,1.8,3.1,3c2,1.2,3.8,1.7,4.1,1.2c0,0,0,0,0,0l0,0l0.3-0.5C16.9,59.7,15,59.2,13,58 c-2-1.2-3.4-2.5-3.1-3" class="st11"/></g><linearGradient id="SVGID_6_" x1="14.675" x2="54.563" y1="19.944" y2="19.944" gradientUnits="userSpaceOnUse"><stop offset="0" style="stop-color:#5f8c3d"/><stop offset="1" style="stop-color:#37573a"/></linearGradient><circle cx="34.6" cy="19.9" r="19.9" class="st12"/><radialGradient id="SVGID_7_" cx="34.619" cy="19.944" r="14.944" gradientUnits="userSpaceOnUse"><stop offset="0" style="stop-color:#fff"/><stop offset="1" style="stop-color:#cedce9"/></radialGradient><path d="M34.6,34.9c-8.2,0-14.9-6.7-14.9-14.9S26.4,5,34.6,5s14.9,6.7,14.9,14.9S42.9,34.9,34.6,34.9z" class="st13"/><linearGradient id="SVGID_8_" x1="26.53" x2="42.707" y1="28.032" y2="11.856" gradientUnits="userSpaceOnUse"><stop offset=".676" style="stop-color:#fff;stop-opacity:0"/><stop offset="1" style="stop-color:#fff"/></linearGradient><path d="M34.6,31.4c-6.3,0-11.4-5.1-11.4-11.4S28.3,8.5,34.6,8.5s11.4,5.1,11.4,11.4S40.9,31.4,34.6,31.4z M34.6,11.5 c-4.7,0-8.4,3.8-8.4,8.4s3.8,8.4,8.4,8.4s8.4-3.8,8.4-8.4S39.3,11.5,34.6,11.5z" class="st14"/></g></svg>