<svg xmlns="http://www.w3.org/2000/svg" xmlns:xlink="http://www.w3.org/1999/xlink" id="LOGOS" x="0" y="0" enable-background="new 0 0 52.9 115" version="1.1" viewBox="0 0 52.9 115" xml:space="preserve"><g><linearGradient id="SVGID_1_" x1="-659.646" x2="-694.965" y1="-470.609" y2="-470.85" gradientTransform="matrix(-0.9771 -0.323 0.2901 -0.8773 -498.5239 -568.5146)" gradientUnits="userSpaceOnUse"><stop offset=".231" style="stop-color:#999875"/><stop offset=".563" style="stop-color:#9b9977"/><stop offset=".682" style="stop-color:#a09f7e"/><stop offset=".767" style="stop-color:#a9a889"/><stop offset=".836" style="stop-color:#b7b69a"/><stop offset=".895" style="stop-color:#c9c7b0"/><stop offset=".948" style="stop-color:#dfddcc"/><stop offset=".994" style="stop-color:#f8f6eb"/><stop offset="1" style="stop-color:#fcfaf0"/></linearGradient><path fill="url(#SVGID_1_)" d="M29.3,112.1l-3-1c0,0,0.4-15.2-5.1-16.2c-3.6-4.2,0.6-178.5,13.7-0.6c0,0-4.5,2.3-5.3,6.1 C28.7,104.2,29.3,112.1,29.3,112.1z"/><linearGradient id="SVGID_2_" x1="-654.207" x2="-705.018" y1="-408.796" y2="-496.804" gradientTransform="matrix(-0.9771 -0.323 0.2901 -0.8773 -498.5239 -568.5146)" gradientUnits="userSpaceOnUse"><stop offset="0" style="stop-color:#49a547"/><stop offset="1" style="stop-color:#409143"/></linearGradient><path fill="url(#SVGID_2_)" d="M30.9,97.5c0,0,26-17.1,19.9-52.8C45,18.9,31.1,10.4,29.6,7.1c-1.6-2.3-3.3-6.4-3.3-6.4l1.1,72.1 C27.4,72.8,25.2,94.9,30.9,97.5z"/><linearGradient id="SVGID_3_" x1="-649.552" x2="-685.568" y1="-472.061" y2="-447.869" gradientTransform="matrix(-0.9771 -0.323 0.2901 -0.8773 -498.5239 -568.5146)" gradientUnits="userSpaceOnUse"><stop offset="0" style="stop-color:#42a347"/><stop offset=".359" style="stop-color:#4ca84a"/><stop offset=".974" style="stop-color:#68b554"/><stop offset="1" style="stop-color:#69b654"/></linearGradient><path fill="url(#SVGID_3_)" d="M24.8,98.5c0,0-24.4-16.7-23-46.1C3.2,23,20.4,8.6,23.8,5.9C26,3.6,26,2.7,26.2,0.4 c1.5,3.3,1.3,48.8,1.4,54.2C28.3,75.4,26.5,94.5,24.8,98.5z"/></g></svg>