<svg xmlns="http://www.w3.org/2000/svg" xmlns:svg="http://www.w3.org/2000/svg" id="Calque_1" width="128" height="128" x="0" y="0" enable-background="new 0 0 595.28 841.89" version="1.1" viewBox="0 0 128 128" xml:space="preserve"><metadata id="metadata51"/><circle id="circle3" cx="64" cy="64" r="64" style="fill:#7bb6dc"/><circle id="circle5" cx="64" cy="62" r="38" style="fill:#256f9a"/><path id="path7" d="m 104.293,77 -1.817,0 C 104.105,72.641 105,67.926 105,63 105,40.908 87.09,23 65,23 42.908,23 25,40.908 25,63 c 0,16.786 10.343,31.147 25,37.081 l 0,4.189 c 0,0.955 0.765,1.73 1.707,1.73 l 52.586,0 c 0.942,0 1.707,-0.775 1.707,-1.73 l 0,-25.541 C 106,77.773 105.235,77 104.293,77 Z" style="opacity:.25;fill:#010202"/><path id="path9" d="m 64,22 c -22.092,0 -40,17.908 -40,40 0,22.09 17.908,40 40,40 22.09,0 40,-17.91 40,-40 C 104,39.908 86.09,22 64,22 Z m 0,76 C 44.117,98 28,81.881 28,62 28,42.117 44.117,26 64,26 c 19.881,0 36,16.117 36,36 0,19.881 -16.119,36 -36,36 z" style="fill:#fff"/><path id="path11" stroke-miterlimit="10" d="m 32,45 c 6,-4 21.852,-4.389 33,-2 14,3 34,13 36,24" style="fill:none;stroke:#fff;stroke-width:3;stroke-miterlimit:10"/><path id="path13" stroke-miterlimit="10" d="M 92,85 C 85.242,87.518 64.815,82.799 55,77 33,64 24,48 24,42 c 0,-3 7,-2 7,-2" style="fill:none;stroke:#fff;stroke-width:3;stroke-miterlimit:10"/><path id="path15" stroke-miterlimit="10" d="M 97.597,46.563 C 97.758,52.065 88,76 79,85 71.272,92.727 64,98 61,99" style="fill:none;stroke:#fff;stroke-width:3;stroke-miterlimit:10"/><path id="path17" stroke-miterlimit="10" d="m 94,39 c 0,0 3.452,-6.534 0,-9 C 87,25 62,41 49.812,54.414 42.145,62.852 33,91.001 37,97.001 c 1.24,1.859 4,-2 4,-2" style="fill:none;stroke:#fff;stroke-width:3;stroke-miterlimit:10"/><circle id="circle19" cx="62.5" cy="42.5" r="5.5" style="fill:#fff"/><circle id="circle21" cx="41.5" cy="68.5" r="5.5" style="fill:#fff"/><circle id="circle23" cx="93.5" cy="57.5" r="5.5" style="fill:#fff"/><g id="g25" transform="translate(-234.125,-356.875)"><path id="path27" d="m 339.125,460.145 c 0,0.955 -0.765,1.73 -1.707,1.73 l -52.586,0 c -0.942,0 -1.707,-0.775 -1.707,-1.73 l 0,-25.541 c 0,-0.955 0.765,-1.729 1.707,-1.729 l 52.586,0 c 0.942,0 1.707,0.773 1.707,1.729 l 0,25.541 z" style="fill:#fff"/><rect id="rect29" width="50" height="23" x="286.125" y="435.875" style="fill:#f6a356"/><g style="font-style:normal;font-weight:400;font-size:40px;line-height:125%;font-family:sans-serif;letter-spacing:0;word-spacing:0;fill:#000;fill-opacity:1;stroke:none;stroke-width:1px;stroke-linecap:butt;stroke-linejoin:miter;stroke-opacity:1" id="text3354"><path style="font-style:normal;font-variant:normal;font-weight:700;font-stretch:normal;font-size:16.25px;font-family:monospace;-inkscape-font-specification:'monospace Bold'" id="path3359" d="m 289.87738,448.12195 0,3.50708 1.55518,0 q 1.11877,0 1.56311,-0.38086 0.45227,-0.38086 0.45227,-1.32507 0,-0.96009 -0.46814,-1.38062 -0.46814,-0.42053 -1.54724,-0.42053 l -1.55518,0 z m 0,-4.61792 0,2.75329 1.55518,0 q 0.88867,0 1.26159,-0.31738 0.38086,-0.31738 0.38086,-1.04736 0,-0.72998 -0.38879,-1.0553 -0.38086,-0.33325 -1.25366,-0.33325 l -1.55518,0 z m -2.26135,-1.86463 3.81653,0 q 1.9757,0 2.96753,0.75379 0.99975,0.74585 0.99975,2.23755 0,1.14258 -0.58716,1.78528 -0.58716,0.6427 -1.7218,0.74585 1.35681,0.13488 2.03919,0.91247 0.6903,0.77759 0.6903,2.17407 0,1.71387 -1.03149,2.48352 -1.03149,0.76966 -3.35632,0.76966 l -3.81653,0 0,-11.86219 z"/><path style="font-style:normal;font-variant:normal;font-weight:700;font-stretch:normal;font-size:16.25px;font-family:monospace;-inkscape-font-specification:'monospace Bold'" id="path3361" d="m 297.76434,443.71826 0,-2.06299 7.05384,0 0,2.06299 -2.35657,0 0,7.72034 2.35657,0 0,2.06299 -7.05384,0 0,-2.06299 2.35657,0 0,-7.72034 -2.35657,0 z"/><path style="font-style:normal;font-variant:normal;font-weight:700;font-stretch:normal;font-size:16.25px;font-family:monospace;-inkscape-font-specification:'monospace Bold'" id="path3363" d="m 307.1192,441.65527 2.51526,0 3.30078,8.60901 0,-8.60901 2.06299,0 0,11.84632 -2.49939,0 -3.31665,-8.60901 0,8.60901 -2.06299,0 0,-11.84632 z"/><path style="font-style:normal;font-variant:normal;font-weight:700;font-stretch:normal;font-size:16.25px;font-family:monospace;-inkscape-font-specification:'monospace Bold'" id="path3365" d="m 319.37811,443.76587 0,7.62512 0.63477,0 q 1.38061,0 1.96777,-0.86487 0.58716,-0.8728 0.58716,-2.95959 0,-2.07092 -0.58716,-2.93579 -0.58716,-0.86487 -1.96777,-0.86487 l -0.63477,0 z m -2.3407,-2.1106 2.50733,0 q 2.90405,0 4.18152,1.38855 1.27746,1.38062 1.27746,4.52271 0,3.15002 -1.27746,4.54651 -1.27747,1.38855 -4.18152,1.38855 l -2.50733,0 0,-11.84632 z"/><path style="font-style:normal;font-variant:normal;font-weight:700;font-stretch:normal;font-size:16.25px;font-family:monospace;-inkscape-font-specification:'monospace Bold'" id="path3367" d="m 327.33649,453.3429 0,-2.1344 q 0.62683,0.36499 1.19812,0.53955 0.57922,0.17456 1.11084,0.17456 1.26159,0 1.92016,-0.84107 0.66651,-0.849 0.70618,-2.53112 -0.37293,0.51574 -0.95215,0.77758 -0.57922,0.25391 -1.37268,0.25391 -1.59485,0 -2.46765,-1.00769 -0.8728,-1.01563 -0.8728,-2.87232 0,-1.98364 0.97595,-3.07067 0.97595,-1.08704 2.76123,-1.08704 2.16614,0 3.14209,1.45203 0.98389,1.44409 0.98389,4.67346 0,3.07068 -1.19812,4.60998 -1.19812,1.53138 -3.59436,1.53138 -0.55542,0 -1.15052,-0.11902 -0.58716,-0.11902 -1.19018,-0.34912 z m 3.07068,-5.72083 q 0.75378,0 1.15051,-0.54749 0.40466,-0.55541 0.40466,-1.60278 0,-1.03943 -0.40466,-1.58691 -0.39673,-0.55542 -1.15051,-0.55542 -0.76172,0 -1.17432,0.55542 -0.40466,0.54748 -0.40466,1.58691 0,1.03943 0.40466,1.59485 0.4126,0.55542 1.17432,0.55542 z"/></g></g></svg>