<svg xmlns="http://www.w3.org/2000/svg" xmlns:xlink="http://www.w3.org/1999/xlink" id="Layer_1" width="562.786" height="800" x="0" y="0" enable-background="new 0 0 562.786 800" version="1.1" viewBox="0 0 562.786 800" xml:space="preserve"><switch><g><g><g><g><g><path fill="#4D4D4D" d="M289.561,689.428l-42.039,26.495V442.608c-4.523-1.517-8.813-2.944-12.813-4.287 c-59.083-19.725-96.728-53.087-105.986-93.946c-7.531-33.153,4.588-68.059,33.25-95.767 c26.161-25.284,62.747-54.397,92.149-77.803c10.65-8.471,19.903-15.717,27.207-21.858c6.844-5.735,4.779-14.648,1.684-18.371 c-5.148-6.186-13.654-5.166-19.401-0.962c-0.306,0.239-16.712,13.032-16.712,13.032l-25.374-34.207 c0,0,16.578-12.238,17.22-12.709c24.818-18.202,57.756-14.742,76.635,8.024c9.424,11.356,13.836,25.713,12.436,40.409 c-1.393,14.657-8.405,27.883-19.748,37.231c-7.641,6.294-16.966,13.721-27.768,22.306 c-28.702,22.842-64.41,51.254-89.108,75.141c-18.107,17.507-25.739,37.479-21.483,56.236 c5.872,25.874,33.503,48.309,77.812,63.2V261.635c119.12,40.259,203.266,180.974,231.188,259.074 c0,0-123.459-41.857-189.148-63.974V689.428z M289.561,412.382c36.681,12.333,79.971,26.955,112.19,37.869 c-35.502-62.693-82.304-100.855-112.19-120.569V412.382z"/></g></g><polygon points="289.561 484.266 247.522 470.14 247.522 442.608 289.561 456.735"/><path fill="#F15A24" d="M86.559,244.638c-0.698,0.491-1.628,0.436-2.157-0.223c-0.536-0.664-0.39-1.586,0.234-2.166 c14.578-13.349,72.296-70.56,136.891-133.81l25.374,34.207C246.9,142.646,88.623,243.19,86.559,244.638z"/></g></g></g></switch></svg>