<svg xmlns="http://www.w3.org/2000/svg" xmlns:svg="http://www.w3.org/2000/svg" id="svg2" width="425.973" height="425.987" version="1.1" viewBox="0 0 425.973 425.987" xml:space="preserve"><metadata id="metadata8"/><defs id="defs6"><clipPath id="clipPath20" clipPathUnits="userSpaceOnUse"><path id="path18" d="M 0,3194.89 V 0 h 3194.81 v 3194.89 z"/></clipPath></defs><g id="g10" transform="matrix(1.3333333,0,0,-1.3333333,0,425.98667)"><g id="g12" transform="scale(0.1)"><g id="g14"><g id="g16" clip-path="url(#clipPath20)"><path id="path22" d="M 0,2396.12 H 798.738 L 399.492,2795.5 0,2396.12" style="fill:#273d7e;fill-opacity:1;fill-rule:nonzero;stroke:none"/><path id="path24" d="M 0,3194.89 V 2396.12 L 398.508,2795.4 0,3194.89" style="fill:#18233c;fill-opacity:1;fill-rule:nonzero;stroke:none"/><path id="path26" d="m 798.738,3194.89 -398.55,-399.49 398.55,-399.28 v 798.77" style="fill:#22477c;fill-opacity:1;fill-rule:nonzero;stroke:none"/><path id="path28" d="M 0,3194.89 399.492,2795.5 798.738,3194.89 H 0" style="fill:#212f54;fill-opacity:1;fill-rule:nonzero;stroke:none"/><path id="path30" d="M 1198.23,1996.76 798.738,1597.41 h 798.722 l -399.23,399.35" style="fill:#88d8e7;fill-opacity:1;fill-rule:nonzero;stroke:none"/><path id="path32" d="m 1197.22,1996.63 -398.482,399.49 v -798.71 l 398.482,399.22" style="fill:#46a5cd;fill-opacity:1;fill-rule:nonzero;stroke:none"/><path id="path34" d="m 1198.95,1996.63 398.51,399.49 v -798.71 l -398.51,399.22" style="fill:#80d3f5;fill-opacity:1;fill-rule:nonzero;stroke:none"/><path id="path36" d="M 1198.23,1996.76 798.738,2396.12 H 1597.46 L 1198.23,1996.76" style="fill:#47a5df;fill-opacity:1;fill-rule:nonzero;stroke:none"/><path id="path38" d="m 2396.07,2396.12 h 798.74 L 2795.4,2795.5 2396.07,2396.12" style="fill:#22477c;fill-opacity:1;fill-rule:nonzero;stroke:none"/><path id="path40" d="m 3194.81,3194.84 -398.55,-399.44 398.55,-399.28 v 798.72" style="fill:#212f54;fill-opacity:1;fill-rule:nonzero;stroke:none"/><path id="path42" d="m 2396.07,3194.87 v -798.75 l 398.61,399.28 -398.61,399.47" style="fill:#273d7e;fill-opacity:1;fill-rule:nonzero;stroke:none"/><path id="path44" d="m 2396.07,3194.87 399.33,-399.37 399.41,399.34 -798.74,0.03" style="fill:#18233c;fill-opacity:1;fill-rule:nonzero;stroke:none"/><path id="path46" d="m 1996.66,1996.76 399.51,-399.35 h -798.71 l 399.2,399.35" style="fill:#80d3f5;fill-opacity:1;fill-rule:nonzero;stroke:none"/><path id="path48" d="m 1997.62,1996.63 398.55,399.49 v -798.71 l -398.55,399.22" style="fill:#46a5cd;fill-opacity:1;fill-rule:nonzero;stroke:none"/><path id="path50" d="m 1995.99,1996.63 -398.53,399.49 v -798.71 l 398.53,399.22" style="fill:#bce9f9;fill-opacity:1;fill-rule:nonzero;stroke:none"/><path id="path52" d="m 1996.66,1996.76 399.51,399.36 h -798.71 l 399.2,-399.36" style="fill:#4baee6;fill-opacity:1;fill-rule:nonzero;stroke:none"/><path id="path54" d="M 0,798.738 399.492,399.379 798.738,798.738 H 0" style="fill:#22477c;fill-opacity:1;fill-rule:nonzero;stroke:none"/><path id="path56" d="M 0,0 398.508,399.512 0,798.738 V 0" style="fill:#212f54;fill-opacity:1;fill-rule:nonzero;stroke:none"/><path id="path58" d="M 400.188,399.512 798.738,0 V 798.738 L 400.188,399.512" style="fill:#273d7e;fill-opacity:1;fill-rule:nonzero;stroke:none"/><path id="path60" d="M 0,0 H 798.738 L 399.492,399.379 0,0" style="fill:#18233c;fill-opacity:1;fill-rule:nonzero;stroke:none"/><path id="path62" d="m 1198.23,1198.11 -399.492,399.35 798.722,-0.05 -399.23,-399.3" style="fill:#a5e0e9;fill-opacity:1;fill-rule:nonzero;stroke:none"/><path id="path64" d="M 1197.22,1198.25 798.738,798.738 v 798.722 l 398.482,-399.21" style="fill:#46a5cd;fill-opacity:1;fill-rule:nonzero;stroke:none"/><path id="path66" d="M 1198.95,1198.25 1597.46,798.738 V 1597.41 L 1198.95,1198.25" style="fill:#ccd6ee;fill-opacity:1;fill-rule:nonzero;stroke:none"/><path id="path68" d="M 1198.23,1198.11 798.738,798.738 h 798.722 l -399.23,399.372" style="fill:#71bae5;fill-opacity:1;fill-rule:nonzero;stroke:none"/><path id="path70" d="M 2396.07,798.738 2795.4,399.379 3194.81,798.738 H 2396.07" style="fill:#273d7e;fill-opacity:1;fill-rule:nonzero;stroke:none"/><path id="path72" d="M 2796.26,399.512 3194.81,0 V 798.738 L 2796.26,399.512" style="fill:#18233c;fill-opacity:1;fill-rule:nonzero;stroke:none"/><path id="path74" d="m 2396.07,0 398.61,399.512 -398.61,399.226 V 0" style="fill:#22477c;fill-opacity:1;fill-rule:nonzero;stroke:none"/><path id="path76" d="m 2396.07,0 h 798.74 L 2795.4,399.379 2396.07,0" style="fill:#212f54;fill-opacity:1;fill-rule:nonzero;stroke:none"/><path id="path78" d="m 1996.66,1198.11 399.51,399.3 h -798.71 l 399.2,-399.3" style="fill:#a6e0f8;fill-opacity:1;fill-rule:nonzero;stroke:none"/><path id="path80" d="M 1997.62,1198.25 2396.17,798.738 V 1597.41 L 1997.62,1198.25" style="fill:#46a5cd;fill-opacity:1;fill-rule:nonzero;stroke:none"/><path id="path82" d="M 1995.99,1198.25 1597.46,798.738 v 798.672 l 398.53,-399.16" style="fill:#99d2f2;fill-opacity:1;fill-rule:nonzero;stroke:none"/><path id="path84" d="m 1996.66,1198.11 399.51,-399.372 h -798.71 l 399.2,399.372" style="fill:#3172b7;fill-opacity:1;fill-rule:nonzero;stroke:none"/><path id="path86" d="m 1197.94,2795.5 399.52,-399.38 H 798.738 l 399.202,399.38" style="fill:#6098c0;fill-opacity:1;fill-rule:nonzero;stroke:none"/><path id="path88" d="M 798.738,3194.89 V 2396.12 L 1197.22,2795.4 798.738,3194.89" style="fill:#3f46a2;fill-opacity:1;fill-rule:nonzero;stroke:none"/><path id="path90" d="m 0,2396.12 399.492,-399.34 399.246,399.34 H 0" style="fill:#3152a7;fill-opacity:1;fill-rule:nonzero;stroke:none"/><path id="path92" d="m 400.188,1996.93 398.55,-399.52 v 798.71 l -398.55,-399.19" style="fill:#3172b7;fill-opacity:1;fill-rule:nonzero;stroke:none"/><path id="path94" d="m 2795.49,1996.93 -399.32,-399.52 v 798.71 l 399.32,-399.19" style="fill:#3152a7;fill-opacity:1;fill-rule:nonzero;stroke:none"/><path id="path96" d="m 2396.07,2396.12 399.33,-398.52 399.41,398.52 h -798.74" style="fill:#3f46a2;fill-opacity:1;fill-rule:nonzero;stroke:none"/><path id="path98" d="m 2396.07,3194.87 -399.22,-399.47 399.22,-399.28 v 798.75" style="fill:#3172b7;fill-opacity:1;fill-rule:nonzero;stroke:none"/><path id="path100" d="m 1996.89,2794.66 -399.43,-398.54 h 798.71 l -399.28,398.54" style="fill:#46a5cd;fill-opacity:1;fill-rule:nonzero;stroke:none"/><path id="path102" d="M 798.738,0.871094 1198.13,400.379 798.738,799.609 V 0.871094" style="fill:#3172b7;fill-opacity:1;fill-rule:nonzero;stroke:none"/><path id="path104" d="m 1197.94,401.148 399.52,398.461 H 798.738 L 1197.94,401.148" style="fill:#46a5cd;fill-opacity:1;fill-rule:nonzero;stroke:none"/><path id="path106" d="m 399.395,1197.97 399.343,399.44 V 798.738 L 399.395,1197.97" style="fill:#3152a7;fill-opacity:1;fill-rule:nonzero;stroke:none"/><path id="path108" d="M 0,798.738 H 798.738 L 399.492,1197.25 0,798.738" style="fill:#3f46a2;fill-opacity:1;fill-rule:nonzero;stroke:none"/><path id="path110" d="m 2396.07,799.609 h 798.74 L 2795.4,1198.93 2396.07,799.609" style="fill:#3152a7;fill-opacity:1;fill-rule:nonzero;stroke:none"/><path id="path112" d="m 2794.68,1198.83 -398.51,399.44 V 799.609 l 398.51,399.221" style="fill:#3172b7;fill-opacity:1;fill-rule:nonzero;stroke:none"/><path id="path114" d="m 1996.89,400.289 -399.43,399.32 h 798.71 l -399.28,-399.32" style="fill:#6098c0;fill-opacity:1;fill-rule:nonzero;stroke:none"/><path id="path116" d="M 1997.62,400.379 2396.17,0.871094 V 799.609 l -398.55,-399.23" style="fill:#3f46a2;fill-opacity:1;fill-rule:nonzero;stroke:none"/></g></g></g></g></svg>