<svg xmlns="http://www.w3.org/2000/svg" xmlns:xlink="http://www.w3.org/1999/xlink" id="Layer_1" x="0" y="0" version="1.1" viewBox="0 0 193.9 33.5" xml:space="preserve" style="enable-background:new 0 0 193.9 33.5"><style type="text/css">.st0{fill:#50be9c}.st1{fill:#8fc640}.st2{fill:#6cc28a}.st3{fill:#4276b9}.st4{fill:#42baeb}.st5{fill:#222425}</style><g><g><path d="M16.8,10.8c1.7,0,3.3,0.7,4.4,1.9l8-7.3c-0.3-0.3-0.6-0.7-1-1c-0.8-0.8-1.6-1.4-2.5-2c-0.9-0.6-1.8-1-2.9-1.4 s-2-0.7-3.1-0.9C18.6,0.1,17.9,0,16.8,0c-1.1,0-2.1,0.1-3.2,0.3s-2,0.5-3.1,0.9S8.6,2.1,7.6,2.7c-0.9,0.6-1.7,1.2-2.5,2 S3.7,6.2,3,7.1S1.9,8.9,1.4,9.9c-0.5,1-0.8,2-1,3C0.2,14.1,0.1,15,0,16.2l10.8,0.4C11,13.4,13.6,10.8,16.8,10.8z" class="st0"/><path d="M22.5,15.3L33,12.7c-0.3-1.1-0.6-2-1.1-3c-0.5-1-1-1.9-1.6-2.8c-0.4-0.5-0.8-1-1.2-1.4l-8,7.3 C21.8,13.5,22.2,14.4,22.5,15.3z" class="st1"/><path d="M33.5,15.9c-0.1-1.1-0.2-2.1-0.5-3.2l-10.5,2.6c0.1,0.5,0.2,0.9,0.2,1.4c0,2.3-1.3,4.2-3.1,5.2l5.1,9.6 c1-0.5,1.8-1.1,2.7-1.8c0.9-0.7,1.6-1.4,2.3-2.3c0.7-0.9,1.1-1.4,1.7-2.4c0.6-1,1-1.9,1.3-2.9c0.4-1.1,0.6-2,0.7-3.1 C33.5,18,33.5,17,33.5,15.9z" class="st2"/><path d="M19.5,22c-0.8,0.4-1.8,0.7-2.8,0.7c-0.6,0-1.1-0.1-1.6-0.2l-3,10.4c1.1,0.3,2,0.5,3.2,0.6 c1.1,0.1,2.1,0.1,3.2,0c1.1-0.1,2.1-0.3,3.1-0.6c1.1-0.3,2-0.7,3-1.2L19.5,22z" class="st3"/><path d="M10.8,16.7c0-0.1,0-0.1,0-0.2L0,16.2c0,1.1,0,2.1,0.2,3.2c0.2,1.1,0.4,2.1,0.8,3.1c0.2,0.5,0.4,1,0.6,1.4 l9.8-4.6C11.1,18.5,10.8,17.6,10.8,16.7z" class="st3"/><path d="M11.4,19.3l-9.8,4.6c0.2,0.4,0.4,0.8,0.7,1.3c0.6,1,1.1,1.8,1.9,2.6s1.4,1.5,2.3,2.2c0.9,0.7,1.7,1.2,2.7,1.7 c1,0.5,1.9,0.9,3,1.2l3-10.4C13.5,21.9,12.1,20.8,11.4,19.3z" class="st4"/></g><g><path d="M59.5,27.8h-1.6V10.9l-6.2,14h-1.6l-6.3-14v16.9h-1.6V7.3h1.6L51,23.1l7-15.8h1.6V27.8z" class="st5"/><path d="M80.3,27.8h-1.7l-1.8-5h-9.6l-1.8,5h-1.7l7.5-20.5h1.4L80.3,27.8z M76.4,21.4L72.1,9.4l-4.3,12.1H76.4z" class="st5"/><path d="M98.5,27.8h-1.8l-4.9-9.5h-5.6v9.5h-1.6V7.3h7.8c1.1,0,2.1,0.2,3,0.6C96.3,8.4,97,9,97.5,9.8 c0.5,0.8,0.8,1.8,0.8,3c0,1.5-0.4,2.7-1.3,3.7c-0.8,1-2,1.6-3.5,1.8L98.5,27.8z M96.7,12.8c0-1.4-0.4-2.4-1.2-3.1 c-0.8-0.7-1.9-1.1-3.3-1.1h-6V17h6c0.7,0,1.3-0.1,1.8-0.3c0.6-0.2,1-0.4,1.4-0.8c0.4-0.3,0.7-0.8,0.9-1.3 C96.6,14.1,96.7,13.5,96.7,12.8z" class="st5"/><path d="M118,27.8h-1.7l-1.8-5H105l-1.8,5h-1.7l7.5-20.5h1.4L118,27.8z M114.1,21.4l-4.3-12.1l-4.3,12.1H114.1z" class="st5"/><path d="M133.8,8.7h-6.1v19.1h-1.6V8.7H120V7.3h13.8V8.7z" class="st5"/><path d="M152.4,27.8h-1.6v-9.7h-10.7v9.7h-1.6V7.3h1.6v9.5h10.7V7.3h1.6V27.8z" class="st5"/><path d="M172.7,17.5c0,1.8,0,3.2-0.1,4.1c-0.1,0.9-0.2,1.6-0.5,2.3c-0.3,0.7-0.7,1.3-1.3,1.9 c-0.7,0.7-1.4,1.2-2.3,1.5s-1.8,0.5-2.8,0.5c-1,0-1.9-0.2-2.8-0.5c-0.9-0.4-1.7-0.9-2.3-1.5c-0.6-0.6-1-1.3-1.3-1.9 c-0.3-0.7-0.4-1.4-0.5-2.3c-0.1-0.9-0.1-2.2-0.1-4.1s0-3.2,0.1-4.1c0.1-0.9,0.2-1.6,0.5-2.3c0.3-0.7,0.7-1.3,1.3-1.9 c0.7-0.7,1.4-1.2,2.3-1.5c0.9-0.4,1.8-0.5,2.8-0.5s1.9,0.2,2.8,0.5c0.9,0.4,1.7,0.9,2.3,1.5c0.6,0.6,1,1.3,1.3,1.9 c0.3,0.7,0.4,1.4,0.5,2.3C172.7,14.3,172.7,15.7,172.7,17.5z M171.1,17.5c0-1.6,0-2.9-0.1-3.7c-0.1-0.9-0.2-1.6-0.4-2.2 c-0.2-0.6-0.6-1.1-1.1-1.6c-0.5-0.5-1.1-0.9-1.8-1.2c-0.7-0.3-1.4-0.4-2.1-0.4c-0.7,0-1.4,0.1-2.1,0.4c-0.7,0.3-1.3,0.7-1.8,1.2 c-0.4,0.4-0.6,0.7-0.8,1.1c-0.2,0.4-0.4,0.9-0.5,1.5c-0.1,0.6-0.2,1.3-0.2,2.1c0,0.8,0,1.7,0,2.8c0,1.6,0,2.9,0.1,3.7 c0.1,0.8,0.2,1.6,0.4,2.2c0.2,0.6,0.6,1.1,1,1.6c0.5,0.5,1.1,0.9,1.8,1.2c0.7,0.3,1.4,0.4,2.1,0.4c0.7,0,1.4-0.1,2.1-0.4 c0.7-0.3,1.3-0.7,1.8-1.2c0.5-0.5,0.8-1,1.1-1.6c0.2-0.6,0.4-1.3,0.4-2.1C171.1,20.4,171.1,19.2,171.1,17.5z" class="st5"/><path d="M193.9,27.8h-1.6L180.5,10v17.8H179V7.3h1.6l11.8,17.8V7.3h1.6V27.8z" class="st5"/></g></g></svg>