<svg xmlns="http://www.w3.org/2000/svg" xmlns:svg="http://www.w3.org/2000/svg" id="Calque_1" width="128" height="128" x="0" y="0" enable-background="new 0 0 595.28 841.89" version="1.1" viewBox="0 0 128 128" xml:space="preserve"><metadata id="metadata51"/><circle id="circle3" cx="64" cy="64" r="64" style="fill:#7bb6dc"/><circle id="circle5" cx="64" cy="62" r="38" style="fill:#256f9a"/><path id="path7" d="m 104.293,77 -1.817,0 C 104.105,72.641 105,67.926 105,63 105,40.908 87.09,23 65,23 42.908,23 25,40.908 25,63 c 0,16.786 10.343,31.147 25,37.081 l 0,4.189 c 0,0.955 0.765,1.73 1.707,1.73 l 52.586,0 c 0.942,0 1.707,-0.775 1.707,-1.73 l 0,-25.541 C 106,77.773 105.235,77 104.293,77 Z" style="opacity:.25;fill:#010202"/><path id="path9" d="m 64,22 c -22.092,0 -40,17.908 -40,40 0,22.09 17.908,40 40,40 22.09,0 40,-17.91 40,-40 C 104,39.908 86.09,22 64,22 Z m 0,76 C 44.117,98 28,81.881 28,62 28,42.117 44.117,26 64,26 c 19.881,0 36,16.117 36,36 0,19.881 -16.119,36 -36,36 z" style="fill:#fff"/><path id="path11" stroke-miterlimit="10" d="m 32,45 c 6,-4 21.852,-4.389 33,-2 14,3 34,13 36,24" style="fill:none;stroke:#fff;stroke-width:3;stroke-miterlimit:10"/><path id="path13" stroke-miterlimit="10" d="M 92,85 C 85.242,87.518 64.815,82.799 55,77 33,64 24,48 24,42 c 0,-3 7,-2 7,-2" style="fill:none;stroke:#fff;stroke-width:3;stroke-miterlimit:10"/><path id="path15" stroke-miterlimit="10" d="M 97.597,46.563 C 97.758,52.065 88,76 79,85 71.272,92.727 64,98 61,99" style="fill:none;stroke:#fff;stroke-width:3;stroke-miterlimit:10"/><path id="path17" stroke-miterlimit="10" d="m 94,39 c 0,0 3.452,-6.534 0,-9 C 87,25 62,41 49.812,54.414 42.145,62.852 33,91.001 37,97.001 c 1.24,1.859 4,-2 4,-2" style="fill:none;stroke:#fff;stroke-width:3;stroke-miterlimit:10"/><circle id="circle19" cx="62.5" cy="42.5" r="5.5" style="fill:#fff"/><circle id="circle21" cx="41.5" cy="68.5" r="5.5" style="fill:#fff"/><circle id="circle23" cx="93.5" cy="57.5" r="5.5" style="fill:#fff"/><g id="g25" transform="translate(-234.125,-356.875)"><path id="path27" d="m 339.125,460.145 c 0,0.955 -0.765,1.73 -1.707,1.73 l -52.586,0 c -0.942,0 -1.707,-0.775 -1.707,-1.73 l 0,-25.541 c 0,-0.955 0.765,-1.729 1.707,-1.729 l 52.586,0 c 0.942,0 1.707,0.773 1.707,1.729 l 0,25.541 z" style="fill:#fff"/><rect id="rect29" width="50" height="23" x="286.125" y="435.875" style="fill:#f6a356"/><polygon id="polygon31" points="306.125 440.875 306.125 455.875 310.125 455.875 310.125 446.875 315.125 455.875 319.125 455.875 319.125 440.875 315.125 440.875 315.125 449.875 310.125 440.875" style="opacity:.25;fill:#231f20"/><polygon id="polygon33" points="305.125 439.875 305.125 454.875 309.125 454.875 309.125 445.875 314.125 454.875 318.125 454.875 318.125 439.875 314.125 439.875 314.125 448.875 309.125 439.875" style="fill:#fff"/><path id="path35" d="m 297.125,440.875 c -1.131,0 -0.162,0 -1,0 l -2,0 -2,0 0,15 2,0 2,0 c 0.884,0 -0.043,0 1,0 4,0 7,-2 7,-6 l 0,-3 c 0,-4 -3,-6 -7,-6 z m 3,10.203 -0.04,0.199 c -0.188,0.926 -1.013,1.598 -1.96,1.598 l -2,0 0,-1.797 0,-5.203 0,-2 2,0 c 1.103,0 2,0.896 2,2 l 0,5.203 z" style="opacity:.25;fill:#231f20"/><path id="path37" d="m 296.125,439.875 c -1.131,0 -0.162,0 -1,0 l -2,0 -2,0 0,15 2,0 2,0 c 0.884,0 -0.043,0 1,0 4,0 7,-2 7,-6 l 0,-3 c 0,-4 -3,-6 -7,-6 z m 3,10.203 -0.04,0.199 c -0.188,0.926 -1.013,1.598 -1.96,1.598 l -2,0 0,-1.797 0,-5.203 0,-2 2,0 c 1.103,0 2,0.896 2,2 l 0,5.203 z" style="fill:#fff"/><g id="g39" style="opacity:.25"><path id="path41" d="m 322.125,451.875 c 0.952,0.453 2.243,0.875 3.792,0.875 1.666,0 1.979,-0.381 1.979,-1.334 0,-0.908 -0.222,-1.248 -2.15,-1.854 -2.668,-0.865 -4.62,-2.205 -4.62,-4.324 0,-2.484 2.501,-4.363 6.262,-4.363 1.834,0 3.784,0.59 4.738,1 l -0.811,2.912 c -0.618,-0.281 -2.428,-0.961 -3.975,-0.961 -1.572,0 -2.11,0.48 -2.11,1.215 0,0.93 0.658,1.258 2.753,1.971 2.834,0.951 4.143,2.291 4.143,4.344 0,2.443 -2.047,4.52 -6.452,4.52 -1.834,0 -3.643,-0.547 -4.548,-1 l 0.999,-3.001 z" style="fill:#231f20"/></g><g id="g43"><path id="path45" d="m 321.125,450.875 c 0.952,0.453 2.243,0.875 3.792,0.875 1.666,0 1.979,-0.381 1.979,-1.334 0,-0.908 -0.222,-1.248 -2.15,-1.854 -2.668,-0.865 -4.62,-2.205 -4.62,-4.324 0,-2.484 2.501,-4.363 6.262,-4.363 1.834,0 3.784,0.59 4.738,1 l -0.811,2.912 c -0.618,-0.281 -2.428,-0.961 -3.975,-0.961 -1.572,0 -2.11,0.48 -2.11,1.215 0,0.93 0.658,1.258 2.753,1.971 2.834,0.951 4.143,2.291 4.143,4.344 0,2.443 -2.047,4.52 -6.452,4.52 -1.834,0 -3.643,-0.547 -4.548,-1 l 0.999,-3.001 z" style="fill:#fff"/></g></g></svg>